<svg width="122" height="35" viewBox="0 0 122 35" preserveAspectRatio="xMidYMid"><path d="M58.62 16.259h-6.597a.309.309 0 0 0-.308.309v3.23c0 .171.138.31.308.31h2.574v4.014s-.578.197-2.176.197c-1.885 0-4.518-.69-4.518-6.49 0-5.8 2.742-6.563 5.316-6.563 2.228 0 3.188.393 3.799.582.192.06.37-.132.37-.303l.735-3.121a.288.288 0 0 0-.118-.242c-.248-.177-1.76-1.025-5.584-1.025-4.404 0-8.922 1.877-8.922 10.899 0 9.022 5.173 10.367 9.531 10.367 3.609 0 5.798-1.545 5.798-1.545.09-.05.1-.176.1-.234V16.568a.309.309 0 0 0-.308-.31zM92.6 8.286a.307.307 0 0 0-.305-.31H88.58a.31.31 0 0 0-.308.31l.001 7.19h-5.79v-7.19a.308.308 0 0 0-.306-.31h-3.715a.309.309 0 0 0-.306.31v19.47a.31.31 0 0 0 .306.311h3.715c.17 0 .306-.14.306-.311v-8.328h5.79l-.01 8.328a.31.31 0 0 0 .308.311h3.723a.31.31 0 0 0 .307-.311V8.286zM65.619 10.89c0-1.34-1.073-2.422-2.396-2.422-1.321 0-2.394 1.083-2.394 2.422 0 1.339 1.073 2.424 2.394 2.424 1.323 0 2.396-1.085 2.396-2.424zm-.295 12.77v-8.987a.31.31 0 0 0-.307-.31h-3.703c-.17 0-.322.175-.322.346v12.876c0 .378.235.49.54.49h3.336c.366 0 .456-.18.456-.496v-3.92zm41.475-9.297h-3.687a.31.31 0 0 0-.306.31v9.547s-.937.687-2.266.687-1.682-.604-1.682-1.908v-8.325a.31.31 0 0 0-.306-.311H94.81a.31.31 0 0 0-.307.31v8.956c0 3.872 2.154 4.82 5.118 4.82 2.431 0 4.392-1.346 4.392-1.346s.093.71.135.793a.325.325 0 0 0 .271.169l2.38-.01a.31.31 0 0 0 .307-.312v-13.07a.31.31 0 0 0-.308-.31zm8.492 10.551c-1.278-.039-2.145-.62-2.145-.62v-6.166s.855-.525 1.905-.619c1.327-.119 2.606.283 2.606 3.454 0 3.345-.577 4.005-2.366 3.951zm1.454-10.97c-2.093 0-3.517.936-3.517.936V8.286a.308.308 0 0 0-.307-.31h-3.725a.309.309 0 0 0-.307.31v19.47a.31.31 0 0 0 .308.311h2.584c.117 0 .205-.06.27-.165.064-.105.157-.898.157-.898s1.523 1.446 4.406 1.446c3.386 0 5.327-1.72 5.327-7.721s-3.1-6.786-5.196-6.786zm-40.73.385h-2.786l-.005-3.687c0-.14-.072-.21-.233-.21h-3.797c-.147 0-.227.066-.227.208v3.81s-1.902.46-2.031.498a.309.309 0 0 0-.223.296v2.395c0 .172.138.31.308.31h1.946v5.76c0 4.28 2.997 4.7 5.018 4.7.924 0 2.03-.298 2.212-.365.11-.04.174-.155.174-.28l.003-2.633a.314.314 0 0 0-.308-.311c-.162 0-.577.066-1.005.066-1.369 0-1.832-.637-1.832-1.462V17.95h2.786a.31.31 0 0 0 .307-.311v-3a.308.308 0 0 0-.307-.31zM17.943 0C8.035 0 0 8.033 0 17.943c0 7.928 5.141 14.654 12.27 17.026.897.166 1.226-.39 1.226-.863 0-.428-.016-1.841-.024-3.34-4.992 1.085-6.045-2.118-6.045-2.118-.816-2.074-1.992-2.625-1.992-2.625-1.628-1.114.122-1.09.122-1.09 1.802.126 2.75 1.848 2.75 1.848 1.601 2.743 4.198 1.95 5.222 1.492.161-1.16.626-1.951 1.14-2.4-3.986-.453-8.175-1.992-8.175-8.867 0-1.96.7-3.56 1.848-4.816-.186-.452-.8-2.277.174-4.749 0 0 1.507-.482 4.936 1.84a17.198 17.198 0 0 1 4.49-.604c1.526.007 3.062.206 4.496.604 3.424-2.322 4.93-1.84 4.93-1.84.976 2.472.361 4.297.175 4.749 1.15 1.256 1.847 2.857 1.847 4.816 0 6.892-4.198 8.409-8.193 8.853.643.557 1.217 1.649 1.217 3.323 0 2.4-.021 4.333-.021 4.924 0 .477.323 1.037 1.232.86 7.126-2.374 12.26-9.098 12.26-17.023C35.885 8.033 27.852 0 17.943 0zM6.72 25.56c-.04.09-.18.116-.307.055-.13-.059-.204-.18-.161-.27.038-.091.179-.117.309-.055.13.058.204.18.16.27zm.883.788c-.086.08-.253.042-.367-.083-.117-.125-.139-.292-.052-.373.088-.08.25-.042.368.083.117.126.14.293.05.373zm.605 1.007c-.11.077-.29.005-.4-.154-.11-.16-.11-.351.002-.428.111-.077.288-.008.4.15.11.163.11.354-.002.432zm1.024 1.167c-.098.109-.308.08-.46-.068-.158-.145-.201-.35-.103-.459.1-.108.31-.078.465.069.156.144.203.351.098.458zm1.324.394c-.044.14-.245.205-.449.145-.203-.061-.335-.226-.294-.368.042-.142.244-.208.45-.144.202.061.335.224.293.367zm1.506.167c.005.148-.167.271-.38.274-.215.005-.389-.115-.391-.26 0-.15.168-.272.383-.275.213-.005.388.114.388.261zm1.48-.056c.025.144-.123.292-.335.332-.208.038-.401-.051-.428-.194-.026-.148.125-.297.333-.335.213-.037.402.05.43.197z" fill="#11110F"/></svg>