<svg width="512" height="184" viewBox="0 0 512 184" xmlns="http://www.w3.org/2000/svg" preserveAspectRatio="xMidYMid"><path d="M101.374 112.737c16.424-28.558 27.063-63.087 27.063-93.698C128.437 5.973 124.332 0 116.493 0 98.2 0 87.002 41.809 87.748 76.153c.187 9.146 11.946 8.586 11.946-.373 0-18.106 3.173-42.743 10.64-56.37 2.986-5.598 5.972-4.478 5.972-.745 0 30.985-13.439 68.314-31.73 96.685 5.039-.187 10.265-.933 16.798-2.613zm32.29 21.838c-5.413 0-8.212-3.36-8.212-8.96 0-11.572 9.518-25.57 21.09-30.237 2.8-4.666 6.72-8.4 11.387-9.706.746-.186 1.493-.372 2.426-.372-2.053-1.307-4.853-2.054-8.026-2.054-20.718 0-39.57 23.518-39.57 42.743 0 11.572 6.16 19.972 19.785 19.972 11.946 0 21.838-6.72 28.184-15.492-4.853-.374-8.586-1.867-11.385-4.293-4.293 5.226-10.266 8.399-15.68 8.399zm-31.73-19.038c-24.265 5.972-37.89.56-59.168.746-18.292.187-41.81 8.586-42.743 30.051-.56 13.44 9.332 24.264 28.557 24.264 21.278 0 41.81-15.119 59.168-37.703-3.733.374-8.96.747-16.799.56-13.065 15.306-27.623 24.078-41.249 24.078-11.759 0-16.798-4.666-16.425-11.759.56-11.385 15.865-16.985 30.423-16.985 19.413 0 33.224 5.226 60.849-2.053 1.493-.374 3.546-.934 5.413-1.68 0-4.48 1.12-9.146 2.986-13.626-4.106 2.053-8.213 3.36-11.012 4.107zm136.254-21.838c.934-1.867 3.36-.747 2.427 1.12-2.987 7.092-5.786 15.492-8.213 25.57 10.64-11.758 20.159-37.703 5.973-37.703-9.706 0-17.918 22.585-21.092 33.038-9.518 14.557-16.61 17.917-19.785 17.917-1.306 0-2.24-.933-2.24-2.612-.372-6.534 8.4-20.158 17.173-38.264 1.866-3.733.747-8.959-4.294-9.892-2.798-.56-6.158.186-8.585 5.04-5.413 10.078-18.477 24.263-32.476 27.623h-.002c-1.306.373-2.426.373-3.359.373-8.4 0-7.28-12.318-3.36-16.61 1.867-2.054 3.547.186 2.24 1.68-2.8 3.172-3.92 12.318 1.68 12.318 2.053 0 3.546-.56 4.48-1.12 4.853-15.679 0-24.078-7.466-24.078-18.525 0-25.643 45.583 7.638 38.79.248-.038.502-.09.761-.154 5.04-1.307 8.96-3.172 12.132-5.225 2.427-5.973 6.16-12.133 7.653-14.56 1.307-2.052 3.547-.746 2.427 1.12-2.8 5.6-9.333 14.932-9.333 25.199 0 8.771 6.346 11.945 12.32 11.945 5.038 0 9.517-1.68 13.625-5.6 1.493-3.36 2.052-5.6 3.358-8.958.747-1.868 3.36-1.12 2.801.745-8.026 25.945-21.651 37.704-32.104 41.25-2.24.747-3.173-2.24-.56-3.173 9.706-3.546 19.037-13.252 24.824-25.198-12.318 11.2-36.023 13.44-36.023 27.625 0 6.72 4.48 10.639 11.572 10.639 8.586 0 25.012-5.413 40.504-41.81 6.532-15.492 8.025-32.476 15.304-47.035zm55.257 38.627c2.052-2.052 4.658-4.845 5.217-5.777.934-3.92 2.24-7.839 3.547-10.64 1.12-2.24 3.546-1.12 2.8.934-1.867 5.04-3.92 9.706-3.92 14.559 0 9.332 4.666 13.812 11.945 13.812 7.28 0 13.253-4.293 21.838-12.88.004-.004.007-.01.012-.013l2.039-2.04c0-6.718 1.493-12.504 4.106-17.918-5.226 4.107-8.773 7.28-13.812 12.32-.005.003-.008.009-.011.013-5.22 5.219-9.134 8.945-11.372 8.945-.933 0-1.866-.746-1.866-2.24 0-5.786 4.478-20.345 11.571-35.65 2.988-6.718 2.054-11.945-2.985-12.878-2.801-.56-6.16.187-8.586 5.04-5.413 11.199-17.359 25.757-28.185 36.77l-.004.005c-5.038 5.037-9.514 8.953-11.38 8.953-1.867 0-2.614-.373-2.614-2.24 0-6.906 17.919-13.252 16.426-27.063-1.493-14.746-22.772-8.96-26.13-17.359-.748-2.053 2.052-3.173 2.798-1.12.56 1.307 1.868 2.427 6.906 3.36.187-.933.187-1.493.187-2.426 0-7.466-3.36-11.2-10.266-11.2-4.853 0-9.892 4.107-9.892 10.08 0 17.545 22.958 15.305 24.078 19.597 1.306 5.786-17.358 13.44-17.358 27.251 0 8.96 5.785 12.693 13.066 12.693 7.278 0 13.251-4.293 21.837-12.88.003-.001.006-.006.008-.008zm-36.778-32.095c-4.48 8.026-12.319 17.545-19.225 24.452-1.867 1.866-4.853 5.04-7.84 7.652-3.173 6.72-5.6 13.253-8.772 19.411 8.026-5.412 18.852-13.998 24.265-19.41 7.839-7.84 16.238-18.293 21.278-27.999-2.987-.746-7.466-2.24-9.706-4.106zm73.166-30.424c7.093 0 13.252-5.413 13.812-12.132.56-6.72-4.853-12.132-11.946-12.132-7.28 0-13.439 5.412-13.999 12.132-.56 6.72 4.853 12.132 12.133 12.132zm23.329 75.407c10.825 0 19.225-6.906 26.504-15.119-.186-6.906.187-12.319 1.307-18.105-7.466 10.08-16.239 21.278-25.198 21.278-6.533 0-4.48-9.146-3.36-12.879 4.48-14.932 14.372-23.705 21.278-27.438 2.054-1.12 3.733 1.68 1.12 2.988-6.72 3.359-14.372 11.198-18.292 20.904 13.253-11.2 27.812-15.306 29.305-26.131.746-5.226-2.427-7.652-6.533-7.652-17.545 0-39.57 25.383-39.57 45.729 0 11.199 6.72 16.425 13.439 16.425zm116.841-20.531v.002c-7.84 7.837-16.052 10.637-24.077 10.637-22.025 0-1.493-37.704 14.559-40.504 2.427-.373 3.546.933 2.799 2.987-1.492 3.92-8.585 12.132-18.478 13.252-2.053 3.173-3.92 6.72-4.853 10.266 19.412-.56 33.97-13.626 35.09-26.505.748-7.653-3.172-11.759-10.265-11.759-6.906 0-14.56 4.106-21.278 9.893-9.706 8.399-22.025 22.958-30.798 31.73l-.004.006c-5.783 5.782-10.262 8.58-13.247 8.58-2.613 0-5.413-.933-5.413-8.959 0-22.398 19.598-60.288 30.238-75.78 1.492-2.24 3.732-.56 2.426 1.493-11.572 18.852-22.025 38.823-27.998 60.848 16.239-21.838 35.65-53.196 36.21-66.448.373-7.093-1.68-10.825-7.465-10.825-16.426 0-46.477 64.021-44.984 94.072.56 11.198 5.6 17.545 15.306 17.545 4.48 0 11.759-2.053 22.585-12.879l.004-.006 1.861-1.86c0-3.36.374-7.466 1.12-10.08.747-2.24 3.36-1.68 2.8.747-.56 2.24-.933 4.48-.933 7.653 0 11.198 7.28 17.359 20.718 17.359 10.64 0 22.024-4.107 31.73-13.813l.002-.003c13.998-13.996 23.516-9.516 23.516-1.677 0 16.8-18.478 36.583-54.129 36.583-61.594 0-121.882-21.09-169.105 5.973-7.466 4.293-2.8 13.999 5.6 9.52 43.489-23.518 101.91-4.854 163.505-4.854 43.117 0 64.955-23.143 64.955-47.782 0-18.105-20.532-26.877-41.997-5.412z" fill="#FFF"/></svg>